<svg width="46" height="14" viewBox="0 0 46 14" fill="none" xmlns="http://www.w3.org/2000/svg">
<path d="M1.472 13.928H0.512L5.28 0.872H6.24L1.472 13.928ZM13.214 13H11.934V5.32H13.214V8.568H17.662V5.32H18.942V13H17.662V9.752H13.214V13ZM21.997 12.12C21.1863 11.3947 20.781 10.408 20.781 9.16C20.781 7.912 21.1863 6.93067 21.997 6.216C22.8077 5.49067 23.7677 5.128 24.877 5.128C25.997 5.128 26.957 5.49067 27.757 6.216C28.5677 6.93067 28.973 7.912 28.973 9.16C28.973 10.408 28.5677 11.3947 27.757 12.12C26.957 12.8347 25.997 13.192 24.877 13.192C23.7677 13.192 22.8077 12.8347 21.997 12.12ZM26.893 11.224C27.4263 10.712 27.693 10.024 27.693 9.16C27.693 8.296 27.4263 7.61333 26.893 7.112C26.3597 6.6 25.6877 6.344 24.877 6.344C24.0663 6.344 23.3943 6.6 22.861 7.112C22.3277 7.61333 22.061 8.296 22.061 9.16C22.061 10.024 22.3277 10.712 22.861 11.224C23.3943 11.7253 24.0663 11.976 24.877 11.976C25.6877 11.976 26.3597 11.7253 26.893 11.224ZM36.809 13H35.529V10.328C34.8357 10.5947 34.073 10.728 33.241 10.728C32.3237 10.728 31.5983 10.4987 31.065 10.04C30.5423 9.58133 30.281 8.89333 30.281 7.976V5.32H31.561V7.88C31.561 8.49867 31.7317 8.93067 32.073 9.176C32.425 9.42133 32.9423 9.544 33.625 9.544C34.3397 9.544 34.9743 9.432 35.529 9.208V5.32H36.809V13ZM42.832 13H39.184V5.32H40.464V8.008H42.832C43.7493 8.008 44.4747 8.24267 45.008 8.712C45.5413 9.18133 45.808 9.77867 45.808 10.504C45.808 11.2293 45.5413 11.8267 45.008 12.296C44.4747 12.7653 43.7493 13 42.832 13ZM40.464 9.16V11.848H42.672C43.248 11.848 43.696 11.736 44.016 11.512C44.3467 11.288 44.512 10.952 44.512 10.504C44.512 10.056 44.3467 9.72 44.016 9.496C43.696 9.272 43.248 9.16 42.672 9.16H40.464Z" fill="black"/>
</svg>
