<svg width="17" height="9" viewBox="0 0 17 9" fill="none" xmlns="http://www.w3.org/2000/svg">
<path d="M1.872 7.12C1.06133 6.39467 0.656 5.408 0.656 4.16C0.656 2.912 1.06133 1.93067 1.872 1.216C2.68267 0.490666 3.64267 0.128 4.752 0.128C5.872 0.128 6.832 0.490666 7.632 1.216C8.44267 1.93067 8.848 2.912 8.848 4.16C8.848 5.408 8.44267 6.39467 7.632 7.12C6.832 7.83467 5.872 8.192 4.752 8.192C3.64267 8.192 2.68267 7.83467 1.872 7.12ZM6.768 6.224C7.30133 5.712 7.568 5.024 7.568 4.16C7.568 3.296 7.30133 2.61333 6.768 2.112C6.23467 1.6 5.56267 1.344 4.752 1.344C3.94133 1.344 3.26933 1.6 2.736 2.112C2.20267 2.61333 1.936 3.296 1.936 4.16C1.936 5.024 2.20267 5.712 2.736 6.224C3.26933 6.72533 3.94133 6.976 4.752 6.976C5.56267 6.976 6.23467 6.72533 6.768 6.224ZM13.634 8H12.354V1.504H9.522V0.32H16.45V1.504H13.634V8Z" fill="#999999"/>
</svg>
