<svg xmlns="http://www.w3.org/2000/svg" xmlns:xlink="http://www.w3.org/1999/xlink" viewBox="0,0,256,256" width="48px" height="48px" fill-rule="nonzero"><g fill="none" fill-rule="nonzero" stroke="none" stroke-width="1" stroke-linecap="butt" stroke-linejoin="miter" stroke-miterlimit="10" stroke-dasharray="" stroke-dashoffset="0" font-family="none" font-weight="none" font-size="none" text-anchor="none" style="mix-blend-mode: normal"><g transform="scale(5.33333,5.33333)"><path d="M25.569,15.563c-0.43,-0.92 -1.18,-1.68 -2.12,-2.11c-0.43,-0.21 -0.9,-0.34 -1.4,-0.39l-10.039,-1.04c-2.42,-0.25 -4.579,1.52 -4.829,3.949l-2.16,21.115c-0.24,2.429 1.51,4.599 3.929,4.849l10.039,1.04c2.42,0.25 4.579,-1.52 4.829,-3.949l2.16,-21.115c0.081,-0.84 -0.069,-1.639 -0.409,-2.349zM16.5,21c-1.38,0 -2.5,-1.12 -2.5,-2.5c0,-1.38 1.12,-2.5 2.5,-2.5c0.1,0 0.21,0.01 0.31,0.02c1.23,0.15 2.19,1.2 2.19,2.48c0,0.71 -0.3,1.36 -0.78,1.82c-0.44,0.42 -1.05,0.68 -1.72,0.68z" fill="#b50505"></path><path d="M18.634,17.193c-0.439,-0.716 -1.232,-1.193 -2.134,-1.193c0,0 -0.633,-0.337 -1.32,-0.902l-0.338,-0.273c-2.855,-2.28 -6.722,-6.854 -8.27,-8.819l-1.57,1.239c0.754,0.957 7.47,9.388 11.135,10.696c0.109,0.039 0.222,0.059 0.336,0.059c0.123,0 0.245,-0.022 0.36,-0.067c0.042,-0.016 0.743,-0.29 1.801,-0.74z" fill="#424242"></path><path d="M20.03,12.85l-4.03,-0.42c-0.01,0.7 0.1,1.4 0.32,2.08l0.49,1.51c1.23,0.15 2.19,1.2 2.19,2.48c0,0.71 -0.3,1.36 -0.78,1.82l4.67,14.27c0.26,0.8 0.66,1.51 1.17,2.11l0.89,-8.69z" fill="#757575"></path><path d="M42.781,28.114l-6.572,-20.081c-0.755,-2.308 -3.244,-3.568 -5.558,-2.815l-9.609,3.126c-2.315,0.753 -3.579,3.234 -2.823,5.542l6.572,20.081c0.755,2.308 3.244,3.568 5.558,2.815l9.609,-3.126c2.315,-0.753 3.579,-3.234 2.823,-5.542zM27.5,14c-1.381,0 -2.5,-1.119 -2.5,-2.5c0,-1.381 1.119,-2.5 2.5,-2.5c1.381,0 2.5,1.119 2.5,2.5c0,1.381 -1.119,2.5 -2.5,2.5z" fill="#bdbdbd"></path><path d="M26.001,13.507c1.759,-1.285 8.439,-6.252 11.988,-10.134l-1.476,-1.35c-3.271,3.578 -9.552,8.291 -11.501,9.725c0.071,0.72 0.439,1.35 0.989,1.759z" fill="#424242"></path><path d="M33.303,32.542c0,0 -1.007,-3.593 -1.405,-4.771c-0.355,-1.051 -1.586,-4.144 -1.586,-4.144l1.926,-0.627c0,0 0.895,3.19 1.325,4.344c1.288,3.46 2.166,4.656 2.166,4.656zM33.375,18c-0.564,-0.002 -1.255,0.068 -1.927,0.191l-0.135,-1.191l-4,1.303l0.585,0.932c-0.075,0.027 -0.127,0.046 -0.148,0.054c-3.625,1.336 -3.75,3.717 -3.75,3.717c1.125,-1.25 3,-1.718 4.75,-2.343c0.012,-0.004 0.024,-0.009 0.036,-0.013l1.152,1.835l1.925,-0.627l-0.244,-2.15c1.457,-0.474 2.27,-0.939 4.755,-0.702l0.626,-0.209c-1.1,-0.451 -2.257,-0.792 -3.625,-0.797z" fill="#eceff1"></path><path d="M19.625,33c-0.25,0 -0.375,0.25 -0.375,0.25c-2.418,-0.346 -3.284,-0.929 -3.589,-1.257l0.337,-2.585c0.015,-0.114 -0.051,-0.225 -0.158,-0.266l-1.497,-0.576c0.292,-1.661 0.657,-3.441 0.657,-3.441l-0.375,-0.125v-1l-1.249,-0.375v-0.375l-1.251,-0.25l-0.119,0.516c-0.745,0.016 -1.006,0.859 -1.006,0.859l0.5,0.25l-0.25,1l0.503,0.288l-0.753,5.25l-0.25,-0.038l-0.25,1.5h-0.375l-0.125,1.375c0,0 0.249,0 0.499,0c0.191,0 0.501,0.124 0.501,0.493c0,0.091 -0.021,0.196 -0.082,0.315c-0.188,0.363 -0.292,0.428 -0.293,0.692c0,0.375 0.375,0.5 0.375,0.5c0,0 0.303,-0.599 0.75,-0.375c0.5,0.25 0.875,0.5 0.875,0.75c0,0.25 -0.5,0.625 -0.5,0.625c0,0 1.27,0.067 1.5,-0.625c0.125,-0.375 0,-0.5 0,-0.875c0,-0.375 0.424,-0.502 0.634,-0.5c0.07,0.001 0.141,0.016 0.208,0.048c0,0 2.032,1.952 3.658,1.952c0.243,0 0.25,-0.5 0.375,-0.5c0.125,0 0.125,0.125 0.375,0.125c0.25,0 1.125,-3 1.125,-3.25c0,-0.25 -0.126,-0.375 -0.375,-0.375zM13.995,30.996c0.181,-0.008 0.536,-0.035 0.834,-0.134c0.131,-0.044 0.202,-0.186 0.158,-0.316c-0.044,-0.131 -0.186,-0.2 -0.316,-0.158c-0.211,0.071 -0.465,0.095 -0.63,0.105c0.049,-0.396 0.125,-0.892 0.215,-1.424l1.22,0.47l-0.318,2.437c-0.049,0.01 -0.093,0.024 -0.158,0.024c-0.899,0 -1.013,-0.622 -1.005,-1.004z" fill="#cfd8dc"></path></g></g></svg>